HIERARCHY
ROOT SpineBase
{
  OFFSET 0.000000 0.000000 0.000000
  CHANNELS 6 Xposition Yposition Zposition Zrotation Xrotation Yrotation
  JOINT SpineMid
  {
    OFFSET 0.000000 24.822612 0.000000
    CHANNELS 3 Zrotation Xrotation Yrotation
    JOINT SpineShoulder
    {
      OFFSET -0.242933 18.635781 -0.592433
      CHANNELS 3 Zrotation Xrotation Yrotation
      JOINT Neck
      {
        OFFSET -0.116236 6.253075 -0.437886
        CHANNELS 3 Zrotation Xrotation Yrotation
        JOINT Head
        {
          OFFSET 0.851153 12.432565 1.475396
          CHANNELS 3 Zrotation Xrotation Yrotation
          End Site
          {
            OFFSET 0 0 0
          }
        }
      }
      JOINT ShoulderLeft
      {
        OFFSET -9.342845 0.816569 -8.473185
        CHANNELS 3 Zrotation Xrotation Yrotation
        JOINT ElbowLeft
        {
          OFFSET 8.181068 -18.768724 -9.031430
          CHANNELS 3 Zrotation Xrotation Yrotation
          JOINT WristLeft
          {
            OFFSET -20.687514 -10.125814 3.242171
            CHANNELS 3 Zrotation Xrotation Yrotation
            JOINT HandLeft
            {
              OFFSET -3.083499 -0.827650 -1.022784
              CHANNELS 3 Zrotation Xrotation Yrotation
              JOINT HandTipLeft
              {
                OFFSET -5.577507 0.960422 2.852645
                CHANNELS 3 Zrotation Xrotation Yrotation
                End Site
                {
                  OFFSET 0 0 0
                }
              }
              JOINT ThumbLeft
              {
                OFFSET -3.193212 3.605682 1.362382
                CHANNELS 3 Zrotation Xrotation Yrotation
                End Site
                {
                  OFFSET 0 0 0
                }
              }
            }
          }
        }
      }
      JOINT ShoulderRight
      {
        OFFSET 12.384752 -0.875452 4.844842
        CHANNELS 3 Zrotation Xrotation Yrotation
        JOINT ElbowRight
        {
          OFFSET 6.128331 -20.678710 -5.114157
          CHANNELS 3 Zrotation Xrotation Yrotation
          JOINT WristRight
          {
            OFFSET -0.222178 -10.502372 -16.102214
            CHANNELS 3 Zrotation Xrotation Yrotation
            JOINT HandRight
            {
              OFFSET 0.798700 0.415068 -3.979436
              CHANNELS 3 Zrotation Xrotation Yrotation
              JOINT HandTipRight
              {
                OFFSET -0.513632 0.558047 -1.316751
                CHANNELS 3 Zrotation Xrotation Yrotation
                End Site
                {
                  OFFSET 0 0 0
                }
              }
              JOINT ThumbRight
              {
                OFFSET -1.474626 1.068732 -1.796527
                CHANNELS 3 Zrotation Xrotation Yrotation
                End Site
                {
                  OFFSET 0 0 0
                }
              }
            }
          }
        }
      }
    }
  }
  JOINT HipLeft
  {
    OFFSET -6.029332 1.393031 -5.415663
    CHANNELS 3 Zrotation Xrotation Yrotation
    JOINT KneeLeft
    {
      OFFSET 24.226384 12.554560 -25.854030
      CHANNELS 3 Zrotation Xrotation Yrotation
      JOINT AnkleLeft
      {
        OFFSET 4.041900 -35.532567 -3.035116
        CHANNELS 3 Zrotation Xrotation Yrotation
        JOINT FootLeft
        {
          OFFSET 4.380662 -0.263496 -10.823604
          CHANNELS 3 Zrotation Xrotation Yrotation
          End Site
          {
            OFFSET 0 0 0
          }
        }
      }
    }
  }
  JOINT HipRight
  {
    OFFSET 5.833055 1.319074 -0.220288
    CHANNELS 3 Zrotation Xrotation Yrotation
    JOINT KneeRight
    {
      OFFSET 20.684533 10.852116 -28.918858
      CHANNELS 3 Zrotation Xrotation Yrotation
      JOINT AnkleRight
      {
        OFFSET 5.269171 -37.169314 3.490253
        CHANNELS 3 Zrotation Xrotation Yrotation
        JOINT FootRight
        {
          OFFSET -2.866911 -4.254078 -5.716299
          CHANNELS 3 Zrotation Xrotation Yrotation
          End Site
          {
            OFFSET 0 0 0
          }
        }
      }
    }
  }
}
MOTION
Frames: 5
Frame Time: 0.033333
14.155929 30.577669 364.858892 -0.000000 0.000000 -23.651998 -0.000000 0.000000 23.651998 -0.000000 0.000000 0.000000 -0.000000 0.000000 0.000000 0.000000 0.000000 0.000000 -0.000000 0.000000 0.000000 -0.000000 0.000000 0.000000 -0.000000 0.000000 0.000000 -0.000000 0.000000 0.000000 0.000000 0.000000 0.000000 0.000000 0.000000 0.000000 -0.000000 0.000000 0.000000 -0.000000 0.000000 0.000000 -0.000000 0.000000 0.000000 -0.000000 0.000000 0.000000 0.000000 0.000000 0.000000 0.000000 0.000000 0.000000 -0.000000 0.000000 23.651998 -0.000000 0.000000 0.000000 -0.000000 0.000000 0.000000 0.000000 0.000000 0.000000 -0.000000 0.000000 23.651998 -0.000000 0.000000 0.000000 -0.000000 0.000000 0.000000 0.000000 0.000000 0.000000
13.721002 30.393525 364.564124 -0.610199 0.539159 -23.393464 0.774115 -0.252535 23.398041 -0.000000 0.000000 0.000000 -0.000000 0.000000 0.000000 0.000000 0.000000 0.000000 -0.604400 0.735178 0.614685 7.432941 1.609328 -3.840930 8.409888 -7.873889 13.930148 -2.056997 12.624734 -7.807261 0.000000 0.000000 0.000000 0.000000 0.000000 0.000000 -0.000000 0.000000 0.000000 -0.000000 0.000000 0.000000 0.226406 -0.605021 3.186052 1.540791 0.047016 0.441727 0.000000 0.000000 0.000000 0.000000 0.000000 0.000000 0.774115 -0.252535 23.398041 -0.000000 0.000000 0.000000 -1.120098 -2.757913 -0.826523 0.000000 0.000000 0.000000 0.510441 0.140051 22.271499 -0.481035 0.122908 1.156655 2.277941 -0.326309 -2.517684 0.000000 0.000000 0.000000
13.366239 30.250840 364.296475 -1.082138 1.000032 -23.244223 0.528955 -0.396894 23.234585 0.752896 -0.426345 0.021174 -0.000000 0.000000 0.000000 0.000000 0.000000 0.000000 -1.338366 1.262816 1.208964 14.859743 2.896217 -7.854185 14.807108 -11.168154 26.622895 5.306058 22.632799 -16.474178 0.000000 0.000000 0.000000 0.000000 0.000000 0.000000 -0.000000 0.000000 0.000000 0.179824 1.355138 -0.301052 0.247056 -1.802138 5.025202 2.520423 -0.487793 1.380895 0.000000 0.000000 0.000000 0.000000 0.000000 0.000000 1.195852 -0.140748 22.403685 -0.350077 0.734897 1.017931 -2.152059 -7.101345 -2.488257 0.000000 0.000000 0.000000 0.910191 0.218034 21.195228 -0.898017 0.238081 2.118177 4.081027 -0.652002 -4.442774 0.000000 0.000000 0.000000
13.091638 30.149614 364.055945 -1.418278 1.384464 -23.212627 0.660881 -0.542560 23.203818 0.067024 -0.101819 -0.033419 0.583686 0.208240 0.055019 0.000000 0.000000 0.000000 -1.231380 0.995119 1.789657 21.916416 3.887083 -11.892451 18.832190 -11.806299 36.985629 20.245198 27.910277 -27.209549 0.000000 0.000000 0.000000 0.000000 0.000000 0.000000 0.958284 -0.522512 0.061735 0.255169 1.736194 -0.422036 0.319095 -1.388938 5.358778 2.990402 -1.454595 2.635695 0.000000 0.000000 0.000000 0.000000 0.000000 0.000000 1.573258 -0.238139 22.040158 -0.479236 0.896067 1.410843 -3.877178 -11.245541 -4.933924 0.000000 0.000000 0.000000 1.197533 0.234822 20.426467 -1.243866 0.351646 2.887071 5.410916 -0.934849 -5.802046 0.000000 0.000000 0.000000
12.897200 30.089846 363.842534 -1.620454 1.694025 -23.304119 0.708477 -0.652376 23.297051 0.059362 -0.134474 -0.041755 0.684278 0.226398 0.069669 0.000000 0.000000 0.000000 -1.959732 0.771986 2.230364 28.311136 4.685847 -15.856765 21.320155 -11.154086 45.212146 36.888943 27.936064 -37.840400 0.000000 0.000000 0.000000 0.000000 0.000000 0.000000 1.169374 -0.678647 0.076155 0.321496 1.937042 -0.525736 0.377955 -0.206860 4.513970 2.999796 -2.818420 4.099799 0.000000 0.000000 0.000000 0.000000 0.000000 0.000000 1.807045 -0.350713 21.854449 -0.569739 0.914687 1.724590 -6.447363 -16.055623 -8.719228 0.000000 0.000000 0.000000 1.371642 0.190435 19.966504 -1.512934 0.468883 3.465532 6.274984 -1.145906 -6.624480 0.000000 0.000000 0.000000
